<?xml version="1.0" standalone="no"?>
<!DOCTYPE svg PUBLIC "-//W3C//DTD SVG 20010904//EN"
 "http://www.w3.org/TR/2001/REC-SVG-20010904/DTD/svg10.dtd">
<svg version="1.0" xmlns="http://www.w3.org/2000/svg"
 width="400.000000pt" height="400.000000pt" viewBox="0 0 400.000000 400.000000"
 preserveAspectRatio="xMidYMid meet">

<g transform="translate(0.000000,400.000000) scale(0.100000,-0.100000)"
fill="#000000" stroke="none">
<path d="M1007 3739 c-143 -11 -222 -31 -335 -85 -80 -39 -107 -59 -186 -137
-124 -124 -178 -228 -213 -412 -13 -67 -16 -227 -20 -970 -6 -1157 1 -1277 91
-1460 67 -136 202 -269 342 -335 34 -17 101 -40 150 -52 l89 -23 1070 0 1070
0 95 24 c289 71 496 282 555 563 31 146 36 362 32 1274 -5 934 -6 955 -48
1099 -64 222 -279 424 -514 484 -44 11 -141 25 -215 31 -161 12 -1804 11
-1963 -1z m1727 -519 c59 -22 57 17 54 -997 l-3 -928 -22 -40 c-29 -55 -68
-89 -133 -119 -184 -84 -454 -44 -538 79 -47 67 -51 187 -11 272 44 92 134
127 367 140 160 10 169 14 183 85 4 23 8 240 9 481 0 424 -1 438 -20 457 -11
11 -24 20 -29 20 -5 0 -231 -47 -502 -105 -428 -90 -496 -107 -512 -126 -17
-21 -18 -60 -16 -695 l2 -672 -23 -46 c-28 -59 -82 -105 -162 -136 -56 -22
-78 -25 -193 -25 -161 0 -216 16 -285 84 -54 52 -70 94 -70 186 0 61 24 131
58 168 19 21 80 55 127 69 16 5 98 13 180 18 83 4 158 11 168 15 47 20 47 17
47 789 0 494 3 733 11 749 6 12 19 28 29 35 11 6 169 41 352 77 183 35 457 89
608 119 314 62 291 59 324 46z"/>
</g>
</svg>
