<svg id="svg" version="1.1" xmlns="http://www.w3.org/2000/svg" xmlns:xlink="http://www.w3.org/1999/xlink" width="400" height="400" viewBox="0, 0, 400,400"><g id="svgg"><path id="path0" d="M95.784 24.827 C 95.399 25.450,95.896 25.783,96.490 25.300 C 96.771 25.072,97.360 24.798,97.800 24.689 C 98.334 24.558,98.176 24.477,97.324 24.446 C 96.622 24.421,95.929 24.592,95.784 24.827 M303.200 25.013 C 303.200 25.336,303.470 25.600,303.800 25.600 C 304.130 25.600,304.400 25.439,304.400 25.243 C 304.400 25.046,304.130 24.782,303.800 24.655 C 303.435 24.515,303.200 24.655,303.200 25.013 M87.000 26.000 C 86.685 26.509,87.612 26.509,88.400 26.000 C 88.888 25.685,88.836 25.611,88.124 25.606 C 87.642 25.603,87.136 25.780,87.000 26.000 M310.600 26.000 C 311.701 26.473,312.092 26.473,311.800 26.000 C 311.664 25.780,311.158 25.613,310.676 25.628 C 309.831 25.655,309.829 25.669,310.600 26.000 M76.012 28.784 C 75.688 28.989,75.541 29.275,75.686 29.419 C 75.830 29.563,76.360 29.393,76.863 29.041 C 77.849 28.350,77.070 28.115,76.012 28.784 M323.200 29.000 C 323.474 29.330,323.878 29.600,324.098 29.600 C 324.321 29.600,324.278 29.335,324.000 29.000 C 323.726 28.670,323.322 28.400,323.102 28.400 C 322.879 28.400,322.922 28.665,323.200 29.000 M63.213 34.291 C 62.689 34.882,62.703 34.923,63.346 34.676 C 63.742 34.524,64.231 34.400,64.433 34.400 C 64.635 34.400,64.800 34.220,64.800 34.000 C 64.800 33.383,63.867 33.555,63.213 34.291 M55.656 39.213 C 55.136 39.646,54.884 40.000,55.094 40.000 C 55.305 40.000,55.893 39.640,56.400 39.200 C 57.593 38.165,56.899 38.177,55.656 39.213 M39.100 55.788 C 38.144 57.103,38.214 57.536,39.200 56.400 C 39.640 55.893,40.000 55.325,40.000 55.139 C 40.000 54.635,39.870 54.729,39.100 55.788 M361.188 57.178 C 361.690 58.115,362.400 58.611,362.400 58.024 C 362.400 57.791,362.220 57.600,362.000 57.600 C 361.780 57.600,361.600 57.330,361.600 57.000 C 361.600 56.670,361.414 56.400,361.186 56.400 C 360.901 56.400,360.902 56.643,361.188 57.178 M363.200 59.895 C 363.200 60.495,364.373 61.855,364.387 61.271 C 364.394 60.981,364.130 60.473,363.800 60.143 C 363.470 59.813,363.200 59.701,363.200 59.895 M28.667 75.867 C 28.520 76.013,28.400 76.386,28.400 76.695 C 28.400 77.161,28.503 77.154,29.000 76.657 C 29.330 76.327,29.600 75.954,29.600 75.829 C 29.600 75.515,28.993 75.540,28.667 75.867 M25.867 87.867 C 25.720 88.013,25.611 88.508,25.625 88.967 C 25.649 89.733,25.682 89.723,26.034 88.842 C 26.426 87.863,26.344 87.389,25.867 87.867 M24.667 95.867 C 24.520 96.013,24.421 96.688,24.446 97.367 C 24.478 98.206,24.554 98.344,24.685 97.800 C 24.791 97.360,25.040 96.829,25.239 96.620 C 25.939 95.884,25.382 95.151,24.667 95.867 M374.400 96.029 C 374.400 96.264,374.670 96.727,375.000 97.057 C 375.623 97.680,375.777 97.326,375.357 96.233 C 375.083 95.519,374.400 95.373,374.400 96.029 M375.200 138.072 C 375.200 138.991,374.984 140.341,374.720 141.072 L 374.239 142.400 326.983 142.400 L 279.726 142.400 279.464 149.900 C 279.320 154.025,279.199 181.340,279.194 210.600 C 279.185 270.866,279.245 269.616,276.100 274.926 C 275.605 275.762,275.200 276.600,275.200 276.790 C 275.200 276.979,275.065 277.193,274.900 277.267 C 274.735 277.340,273.906 278.264,273.057 279.320 C 271.305 281.500,267.145 284.559,263.719 286.188 C 262.443 286.794,261.130 287.421,260.800 287.580 C 260.087 287.926,256.558 288.935,253.907 289.552 C 247.943 290.941,234.058 290.933,228.039 289.538 C 224.114 288.628,221.718 287.890,219.689 286.964 C 218.528 286.434,217.403 286.000,217.189 286.000 C 216.975 286.000,216.800 285.864,216.800 285.698 C 216.800 285.531,216.283 285.166,215.651 284.887 C 208.917 281.906,204.333 270.718,205.584 260.318 C 207.525 244.187,217.989 237.766,242.600 237.606 C 258.670 237.501,261.912 236.150,263.178 229.027 C 264.128 223.680,263.457 139.029,262.487 141.938 C 262.373 142.280,256.388 142.400,239.400 142.400 C 222.847 142.400,216.425 142.524,216.318 142.847 C 216.235 143.095,214.878 143.387,213.284 143.501 C 211.698 143.615,210.400 143.863,210.400 144.054 C 210.400 144.244,209.536 144.400,208.480 144.400 C 207.424 144.400,206.341 144.619,206.074 144.886 C 205.807 145.153,204.556 145.507,203.294 145.672 C 198.411 146.312,196.581 146.636,196.077 146.950 C 195.790 147.129,194.530 147.445,193.277 147.653 C 188.245 148.489,183.836 149.398,181.772 150.026 C 181.096 150.232,179.789 150.400,178.866 150.400 C 177.944 150.400,176.877 150.574,176.495 150.787 C 175.403 151.395,170.889 152.400,169.248 152.400 C 168.429 152.400,167.589 152.559,167.380 152.753 C 167.048 153.062,165.801 153.347,160.635 154.296 C 159.042 154.588,157.341 156.196,157.000 157.730 C 156.845 158.428,156.595 189.060,156.446 225.800 C 156.221 281.239,156.080 292.838,155.621 294.000 C 153.690 298.889,152.055 301.499,149.350 304.012 C 146.566 306.599,144.957 307.732,142.000 309.186 C 140.570 309.889,139.087 310.630,138.705 310.832 C 138.323 311.035,137.684 311.200,137.285 311.200 C 136.886 311.200,136.389 311.361,136.180 311.558 C 132.917 314.631,109.150 314.624,100.200 311.548 C 94.315 309.526,89.147 305.727,86.504 301.483 C 85.004 299.073,84.711 298.321,83.414 293.538 C 82.617 290.601,82.607 283.964,83.396 281.364 C 83.723 280.284,83.993 279.062,83.996 278.649 C 84.012 275.768,89.858 267.974,93.312 266.229 C 94.020 265.871,94.870 265.424,95.200 265.235 C 96.801 264.321,100.816 262.916,103.200 262.435 C 109.976 261.070,112.951 260.803,121.400 260.801 C 134.971 260.799,137.912 259.921,140.148 255.200 L 141.000 253.400 140.904 203.200 C 140.851 175.590,140.698 150.615,140.563 147.700 L 140.318 142.400 82.959 142.400 C 26.448 142.400,25.600 142.389,25.600 141.624 C 25.600 141.197,25.447 140.753,25.259 140.637 C 24.156 139.955,23.898 303.040,25.000 304.143 C 25.450 304.593,25.600 305.702,25.600 308.571 C 25.600 310.857,25.761 312.400,26.000 312.400 C 26.220 312.400,26.400 313.300,26.400 314.400 C 26.400 315.911,26.547 316.400,27.000 316.400 C 27.466 316.400,27.600 316.931,27.600 318.776 C 27.600 320.083,27.780 321.264,28.000 321.400 C 28.220 321.536,28.400 322.074,28.400 322.595 C 28.400 323.116,28.670 323.813,29.000 324.143 C 29.330 324.473,29.600 325.296,29.600 325.971 C 29.600 326.647,29.780 327.200,30.000 327.200 C 30.220 327.200,30.400 327.656,30.400 328.213 C 30.400 328.769,30.670 329.329,31.000 329.455 C 31.330 329.582,31.600 330.116,31.600 330.643 C 31.600 331.169,31.780 331.600,32.000 331.600 C 32.220 331.600,32.400 332.050,32.400 332.600 C 32.400 333.222,32.627 333.600,33.000 333.600 C 33.373 333.600,33.600 333.978,33.600 334.600 C 33.600 335.150,33.780 335.600,34.000 335.600 C 34.220 335.600,34.400 335.938,34.400 336.351 C 34.400 336.764,34.670 337.326,35.000 337.600 C 35.330 337.874,35.600 338.393,35.600 338.754 C 35.600 339.115,36.050 339.748,36.600 340.161 C 37.150 340.574,37.600 341.247,37.600 341.656 C 37.600 342.065,37.780 342.400,38.000 342.400 C 38.220 342.400,38.400 342.640,38.400 342.932 C 38.400 343.225,38.850 343.706,39.400 344.000 C 40.028 344.336,40.400 344.882,40.400 345.468 C 40.400 346.030,40.638 346.400,41.000 346.400 C 41.330 346.400,41.600 346.593,41.600 346.829 C 41.600 347.382,42.618 348.400,43.171 348.400 C 43.407 348.400,43.600 348.586,43.600 348.813 C 43.600 349.041,44.095 349.727,44.700 350.338 C 45.305 350.950,46.187 351.889,46.661 352.425 C 48.028 353.972,50.815 356.400,51.225 356.400 C 51.431 356.400,51.600 356.593,51.600 356.829 C 51.600 357.289,52.583 358.400,52.991 358.400 C 53.127 358.400,53.655 358.850,54.165 359.400 C 54.675 359.950,55.386 360.400,55.746 360.400 C 56.106 360.400,56.400 360.670,56.400 361.000 C 56.400 361.330,56.670 361.600,57.000 361.600 C 57.330 361.600,57.600 361.780,57.600 362.000 C 57.600 362.220,58.050 362.400,58.600 362.400 C 59.150 362.400,59.600 362.605,59.600 362.856 C 59.600 363.457,60.828 364.371,61.657 364.387 C 62.019 364.394,62.418 364.670,62.545 365.000 C 62.671 365.330,63.141 365.600,63.587 365.600 C 64.034 365.600,64.400 365.780,64.400 366.000 C 64.400 366.220,64.766 366.400,65.213 366.400 C 65.659 366.400,66.129 366.670,66.255 367.000 C 66.382 367.330,66.916 367.600,67.443 367.600 C 67.969 367.600,68.400 367.780,68.400 368.000 C 68.400 368.220,68.831 368.400,69.357 368.400 C 69.884 368.400,70.418 368.670,70.545 369.000 C 70.671 369.330,71.231 369.600,71.787 369.600 C 72.344 369.600,72.800 369.780,72.800 370.000 C 72.800 370.220,73.411 370.400,74.157 370.400 C 74.995 370.400,75.603 370.630,75.745 371.000 C 75.902 371.411,76.545 371.600,77.787 371.600 C 78.784 371.600,79.600 371.780,79.600 372.000 C 79.600 372.220,80.500 372.400,81.600 372.400 C 83.111 372.400,83.600 372.547,83.600 373.000 C 83.600 373.460,84.108 373.600,85.776 373.600 C 86.973 373.600,88.064 373.780,88.200 374.000 C 88.336 374.220,89.979 374.400,91.852 374.400 C 94.345 374.400,95.418 374.561,95.857 375.000 C 96.705 375.847,108.800 375.894,108.800 375.050 C 108.800 374.027,111.185 374.000,200.000 374.000 C 288.815 374.000,291.200 374.027,291.200 375.050 C 291.200 375.902,303.928 375.853,304.255 375.000 C 304.439 374.520,305.314 374.400,308.619 374.400 C 310.943 374.400,312.861 374.225,313.000 374.000 C 313.136 373.780,313.937 373.600,314.781 373.600 C 315.775 373.600,316.395 373.389,316.545 373.000 C 316.710 372.568,317.387 372.400,318.964 372.400 C 320.168 372.400,321.264 372.220,321.400 372.000 C 321.536 371.780,322.074 371.600,322.595 371.600 C 323.116 371.600,323.813 371.330,324.143 371.000 C 324.473 370.670,325.386 370.400,326.171 370.400 C 326.957 370.400,327.600 370.220,327.600 370.000 C 327.600 369.780,327.966 369.600,328.413 369.600 C 328.859 369.600,329.329 369.330,329.455 369.000 C 329.597 368.630,330.205 368.400,331.043 368.400 C 331.789 368.400,332.400 368.220,332.400 368.000 C 332.400 367.780,332.651 367.600,332.957 367.600 C 333.264 367.600,333.618 367.330,333.745 367.000 C 333.879 366.649,334.479 366.400,335.187 366.400 C 335.854 366.400,336.400 366.220,336.400 366.000 C 336.400 365.780,336.766 365.600,337.213 365.600 C 337.659 365.600,338.129 365.330,338.255 365.000 C 338.382 364.670,338.736 364.400,339.043 364.400 C 339.349 364.400,339.600 364.220,339.600 364.000 C 339.600 363.780,339.827 363.600,340.104 363.600 C 340.381 363.600,341.093 363.150,341.687 362.600 C 342.280 362.050,342.934 361.600,343.140 361.600 C 343.346 361.600,343.618 361.330,343.745 361.000 C 343.871 360.670,344.251 360.400,344.587 360.400 C 344.924 360.400,345.200 360.220,345.200 360.000 C 345.200 359.780,345.470 359.600,345.800 359.600 C 346.130 359.600,346.400 359.330,346.400 359.000 C 346.400 358.670,346.593 358.400,346.829 358.400 C 347.382 358.400,348.400 357.382,348.400 356.829 C 348.400 356.593,348.837 356.400,349.372 356.400 C 350.076 356.400,350.380 356.151,350.472 355.500 C 350.554 354.922,350.922 354.554,351.500 354.472 C 351.995 354.402,352.400 354.164,352.400 353.944 C 352.400 353.412,353.431 352.400,353.971 352.400 C 354.207 352.400,354.400 352.065,354.400 351.656 C 354.400 351.247,354.870 350.572,355.444 350.156 C 357.046 348.997,358.400 347.467,358.400 346.817 C 358.400 346.588,358.670 346.400,359.000 346.400 C 359.330 346.400,359.600 346.130,359.600 345.800 C 359.600 345.470,359.780 345.200,360.000 345.200 C 360.220 345.200,360.400 344.924,360.400 344.587 C 360.400 344.251,360.670 343.871,361.000 343.745 C 361.330 343.618,361.600 343.346,361.600 343.140 C 361.600 342.935,361.968 342.371,362.418 341.889 C 363.245 341.001,364.400 338.944,364.400 338.359 C 364.400 338.184,364.850 337.556,365.400 336.962 C 365.950 336.369,366.400 335.468,366.400 334.961 C 366.400 334.455,366.625 333.896,366.900 333.720 C 367.663 333.232,368.400 331.722,368.400 330.648 C 368.400 330.119,368.670 329.582,369.000 329.455 C 369.330 329.329,369.600 328.870,369.600 328.436 C 369.600 328.002,369.780 327.536,370.000 327.400 C 370.220 327.264,370.400 326.553,370.400 325.819 C 370.400 325.003,370.633 324.396,371.000 324.255 C 371.374 324.112,371.600 323.502,371.600 322.636 C 371.600 321.872,371.780 321.136,372.000 321.000 C 372.220 320.864,372.400 319.773,372.400 318.576 C 372.400 316.908,372.540 316.400,373.000 316.400 C 373.452 316.400,373.600 315.914,373.600 314.424 C 373.600 313.337,373.780 312.336,374.000 312.200 C 374.220 312.064,374.400 310.331,374.400 308.348 C 374.400 305.677,374.555 304.587,375.000 304.143 C 375.588 303.555,375.986 136.400,375.400 136.400 C 375.290 136.400,375.200 137.152,375.200 138.072 " stroke="none" fill="#fc3d45" fill-rule="evenodd"></path><path id="path1" d="M267.200 78.252 C 265.550 78.546,263.300 78.960,262.200 79.173 C 261.100 79.385,258.670 79.852,256.800 80.210 C 254.930 80.569,252.680 81.009,251.800 81.188 C 247.515 82.058,243.224 82.902,241.600 83.193 C 240.610 83.371,238.270 83.824,236.400 84.200 C 234.530 84.576,232.190 85.032,231.200 85.214 C 230.210 85.395,227.960 85.831,226.200 86.184 C 224.440 86.536,222.190 86.982,221.200 87.175 C 220.210 87.368,217.870 87.831,216.000 88.205 C 214.130 88.578,211.790 89.023,210.800 89.193 C 209.810 89.363,207.560 89.805,205.800 90.175 C 204.040 90.546,201.700 91.008,200.600 91.204 C 198.803 91.523,195.626 92.145,190.400 93.200 C 188.518 93.580,183.083 94.628,180.000 95.206 C 179.010 95.391,176.760 95.841,175.000 96.206 C 173.240 96.571,170.990 97.015,170.000 97.193 C 169.010 97.370,166.670 97.824,164.800 98.200 C 162.930 98.576,160.590 99.026,159.600 99.200 C 158.610 99.374,156.270 99.824,154.400 100.200 C 152.530 100.576,150.190 101.012,149.200 101.168 C 145.959 101.678,143.783 103.306,142.619 106.093 C 142.068 107.411,141.999 115.359,141.992 178.087 C 141.984 252.906,141.980 253.067,140.128 256.655 C 138.297 260.203,135.430 261.043,124.000 261.380 C 114.344 261.665,106.591 262.242,104.200 262.854 C 101.064 263.657,98.194 264.569,97.820 264.882 C 97.611 265.057,97.202 265.200,96.910 265.200 C 95.861 265.200,91.194 268.494,89.288 270.580 C 82.959 277.504,81.683 290.456,86.375 300.121 C 87.261 301.946,91.444 306.800,92.130 306.800 C 92.308 306.800,93.043 307.250,93.764 307.800 C 94.486 308.350,95.189 308.800,95.327 308.800 C 95.465 308.800,96.528 309.222,97.689 309.739 C 103.501 312.323,115.530 313.944,123.200 313.177 C 125.070 312.990,127.410 312.755,128.400 312.654 C 131.770 312.311,135.782 311.219,139.111 309.739 C 140.272 309.222,141.320 308.800,141.441 308.800 C 144.019 308.800,152.380 300.381,154.045 296.109 C 155.841 291.502,155.742 295.180,155.978 223.782 C 156.187 160.443,156.241 156.502,156.906 155.487 C 157.788 154.141,160.358 152.800,162.056 152.800 C 162.764 152.800,163.896 152.630,164.572 152.423 C 166.020 151.978,170.026 151.061,173.400 150.403 C 174.720 150.145,176.610 149.743,177.600 149.509 C 178.590 149.275,180.210 148.946,181.200 148.777 C 182.190 148.609,184.260 148.167,185.800 147.795 C 187.340 147.423,189.500 146.965,190.600 146.777 C 191.700 146.589,193.860 146.138,195.400 145.774 C 196.940 145.411,199.010 144.967,200.000 144.786 C 200.990 144.606,203.150 144.158,204.800 143.790 C 209.524 142.738,210.837 142.464,213.363 142.001 C 214.663 141.764,215.888 141.469,216.086 141.347 C 216.283 141.225,217.380 140.977,218.523 140.796 C 219.665 140.615,221.860 140.174,223.400 139.815 C 224.940 139.456,227.100 138.996,228.200 138.793 C 229.300 138.590,231.460 138.129,233.000 137.769 C 234.540 137.409,236.610 136.963,237.600 136.778 C 242.444 135.872,243.603 135.636,245.043 135.261 C 245.899 135.039,247.680 134.653,249.000 134.404 C 250.320 134.155,252.316 133.692,253.435 133.376 C 257.893 132.115,263.200 133.223,263.200 135.414 C 263.200 135.700,263.425 136.008,263.700 136.100 C 264.467 136.356,264.427 227.846,263.659 230.400 C 261.671 237.013,259.544 237.838,243.600 238.181 C 232.147 238.427,228.994 238.793,222.800 240.591 C 220.374 241.295,216.497 243.088,215.671 243.888 C 215.381 244.170,214.980 244.400,214.780 244.400 C 213.839 244.400,209.933 249.069,208.653 251.724 C 204.559 260.217,205.317 272.285,210.380 279.192 C 211.483 280.698,214.430 283.587,214.871 283.595 C 215.021 283.598,215.381 283.830,215.671 284.112 C 217.299 285.689,223.695 288.076,228.200 288.789 C 235.622 289.962,237.343 290.087,243.379 289.888 C 253.475 289.554,263.387 286.851,267.216 283.386 C 267.572 283.064,268.030 282.800,268.235 282.800 C 270.047 282.800,275.939 274.689,277.368 270.229 C 278.360 267.132,278.331 83.874,277.339 82.389 C 274.579 78.263,272.319 77.340,267.200 78.252 " stroke="none" fill="#fcebec" fill-rule="evenodd"></path><path id="path2" d="M97.800 24.685 C 97.360 24.791,96.829 25.040,96.620 25.239 C 96.411 25.437,94.644 25.600,92.694 25.600 C 90.743 25.600,88.844 25.759,88.474 25.952 C 88.103 26.146,86.914 26.410,85.832 26.539 C 84.749 26.668,83.759 26.935,83.632 27.131 C 83.504 27.328,82.482 27.575,81.359 27.680 C 80.237 27.785,78.515 28.260,77.533 28.736 C 76.551 29.211,75.360 29.600,74.887 29.600 C 73.953 29.600,71.083 30.814,70.867 31.300 C 70.793 31.465,70.386 31.600,69.961 31.600 C 69.537 31.600,68.877 31.767,68.495 31.971 C 68.113 32.175,67.474 32.443,67.075 32.568 C 66.676 32.692,66.461 32.976,66.598 33.197 C 66.741 33.428,66.409 33.600,65.824 33.600 C 65.261 33.600,64.800 33.780,64.800 34.000 C 64.800 34.220,64.602 34.400,64.360 34.400 C 63.730 34.400,61.095 35.677,60.471 36.285 C 60.181 36.568,59.784 36.800,59.590 36.800 C 59.395 36.800,58.795 37.205,58.256 37.700 C 57.096 38.765,56.562 39.174,55.128 40.094 C 54.539 40.472,53.459 41.390,52.728 42.133 C 51.998 42.877,50.995 43.697,50.500 43.956 C 50.005 44.216,49.600 44.692,49.600 45.014 C 49.600 45.336,49.399 45.600,49.153 45.600 C 48.729 45.600,45.600 48.499,45.600 48.892 C 45.600 48.994,44.655 50.051,43.500 51.239 C 41.467 53.331,40.456 54.556,39.200 56.449 C 38.870 56.947,38.195 57.777,37.700 58.295 C 37.205 58.813,36.800 59.504,36.800 59.831 C 36.800 60.158,36.530 60.529,36.200 60.655 C 35.870 60.782,35.600 61.216,35.600 61.619 C 35.600 62.023,35.431 62.457,35.225 62.584 C 34.668 62.929,33.600 65.214,33.600 66.061 C 33.600 66.468,33.402 66.755,33.160 66.700 C 32.918 66.645,32.418 67.541,32.050 68.690 C 31.681 69.840,31.159 71.001,30.890 71.270 C 30.620 71.540,30.400 72.073,30.400 72.456 C 30.400 72.839,30.220 73.264,30.000 73.400 C 29.780 73.536,29.600 74.252,29.600 74.990 C 29.600 75.729,29.393 76.402,29.139 76.487 C 28.885 76.572,28.649 76.992,28.614 77.420 C 28.579 77.849,28.337 78.593,28.075 79.074 C 27.814 79.554,27.600 80.754,27.600 81.740 C 27.600 82.726,27.416 83.595,27.191 83.670 C 26.965 83.745,26.683 84.705,26.564 85.803 C 26.445 86.901,26.179 88.322,25.974 88.960 C 25.768 89.598,25.600 91.497,25.600 93.180 C 25.600 95.095,25.413 96.427,25.100 96.740 C 24.712 97.128,24.593 102.664,24.568 121.520 C 24.550 134.874,24.603 144.580,24.686 143.088 C 24.819 140.707,25.600 139.455,25.600 141.624 C 25.600 142.389,26.448 142.400,83.000 142.400 C 114.570 142.400,140.432 142.445,140.470 142.500 C 140.509 142.555,140.666 157.630,140.818 176.000 C 141.053 204.181,141.074 201.587,140.953 159.400 C 140.800 105.584,140.734 107.520,142.830 104.323 C 144.232 102.184,146.271 100.971,149.400 100.415 C 150.940 100.141,153.010 99.742,154.000 99.526 C 154.990 99.311,156.700 98.989,157.800 98.810 C 162.276 98.082,164.843 97.564,165.821 97.192 C 166.388 96.976,167.462 96.800,168.207 96.800 C 168.953 96.800,169.976 96.640,170.481 96.445 C 171.461 96.067,175.310 95.271,178.600 94.766 C 179.700 94.597,181.950 94.168,183.600 93.813 C 185.250 93.458,187.500 93.009,188.600 92.815 C 189.700 92.621,192.040 92.162,193.800 91.794 C 195.560 91.426,197.900 90.973,199.000 90.787 C 200.100 90.601,202.350 90.158,204.000 89.802 C 205.650 89.447,207.990 88.992,209.200 88.791 C 210.410 88.591,212.660 88.150,214.200 87.813 C 215.740 87.475,217.990 87.023,219.200 86.808 C 220.410 86.593,222.840 86.127,224.600 85.774 C 228.481 84.994,230.643 84.594,233.800 84.071 C 235.120 83.852,236.707 83.477,237.326 83.237 C 237.945 82.997,239.004 82.800,239.680 82.800 C 240.355 82.800,241.558 82.634,242.354 82.430 C 244.821 81.800,248.112 81.106,250.200 80.778 C 251.300 80.604,253.640 80.164,255.400 79.799 C 257.160 79.434,259.500 78.971,260.600 78.770 C 261.700 78.570,263.950 78.123,265.600 77.778 C 270.964 76.655,270.942 76.655,273.337 77.788 C 279.397 80.654,279.183 79.175,279.287 119.075 C 279.335 137.514,279.430 150.305,279.499 147.500 L 279.624 142.400 326.924 142.400 L 374.225 142.400 374.796 141.100 C 375.663 139.125,375.840 97.898,374.985 97.042 C 374.564 96.621,374.400 95.511,374.400 93.088 C 374.400 91.235,374.231 89.198,374.024 88.560 C 373.817 87.922,373.546 86.590,373.422 85.600 C 373.298 84.610,373.017 83.740,372.798 83.667 C 372.579 83.593,372.400 82.749,372.400 81.790 C 372.400 80.832,372.220 79.936,372.000 79.800 C 371.780 79.664,371.600 79.036,371.600 78.405 C 371.600 77.774,371.330 76.987,371.000 76.657 C 370.670 76.327,370.400 75.504,370.400 74.829 C 370.400 74.153,370.220 73.600,370.000 73.600 C 369.780 73.600,369.600 73.163,369.600 72.629 C 369.600 72.094,369.330 71.387,369.000 71.057 C 368.670 70.727,368.387 70.129,368.371 69.729 C 368.355 69.328,367.997 68.460,367.575 67.800 C 367.154 67.140,366.704 66.330,366.575 66.000 C 366.447 65.670,366.175 65.087,365.971 64.705 C 365.767 64.323,365.600 63.738,365.600 63.405 C 365.600 63.072,365.435 62.800,365.233 62.800 C 365.031 62.800,364.453 62.125,363.950 61.300 C 363.446 60.475,362.891 59.740,362.717 59.667 C 362.543 59.593,362.400 59.356,362.400 59.140 C 362.400 58.699,360.366 55.874,359.900 55.667 C 359.735 55.593,359.599 55.323,359.598 55.067 C 359.596 54.810,358.696 53.624,357.598 52.432 C 356.499 51.240,355.600 50.115,355.600 49.932 C 355.600 49.749,355.330 49.600,355.000 49.600 C 354.670 49.600,354.400 49.360,354.400 49.068 C 354.400 48.775,353.950 48.294,353.400 48.000 C 352.850 47.706,352.400 47.256,352.400 47.000 C 352.400 46.744,351.950 46.294,351.400 46.000 C 350.850 45.706,350.400 45.225,350.400 44.932 C 350.400 44.640,350.261 44.400,350.091 44.400 C 349.921 44.400,348.900 43.590,347.822 42.600 C 346.744 41.610,345.721 40.800,345.549 40.800 C 345.377 40.800,344.823 40.387,344.318 39.881 C 343.813 39.376,342.786 38.611,342.035 38.181 C 341.285 37.752,340.224 36.995,339.677 36.500 C 339.131 36.005,338.349 35.600,337.942 35.600 C 337.534 35.600,337.200 35.461,337.200 35.291 C 337.200 35.013,335.586 34.077,334.000 33.434 C 333.670 33.301,332.860 32.846,332.200 32.425 C 331.540 32.003,330.672 31.645,330.271 31.629 C 329.871 31.613,329.273 31.330,328.943 31.000 C 328.613 30.670,327.916 30.400,327.395 30.400 C 326.874 30.400,326.336 30.220,326.200 30.000 C 326.064 29.780,325.445 29.600,324.825 29.600 C 324.205 29.600,323.467 29.322,323.185 28.982 C 322.903 28.642,322.453 28.448,322.186 28.550 C 321.918 28.653,321.207 28.481,320.604 28.168 C 320.002 27.856,318.845 27.600,318.034 27.600 C 317.223 27.600,316.341 27.381,316.074 27.114 C 315.523 26.563,312.270 26.070,307.000 25.741 C 304.970 25.614,303.276 25.316,303.115 25.058 C 302.830 24.601,99.683 24.233,97.800 24.685 M253.800 134.056 C 252.040 134.473,249.790 134.974,248.800 135.169 C 247.810 135.364,245.560 135.832,243.800 136.208 C 242.040 136.584,239.880 137.039,239.000 137.220 C 238.120 137.400,236.050 137.849,234.400 138.216 C 232.750 138.584,230.590 139.032,229.600 139.213 C 228.610 139.394,226.450 139.842,224.800 140.210 C 223.150 140.577,221.080 141.023,220.200 141.200 C 219.320 141.376,217.160 141.829,215.400 142.206 C 213.640 142.583,211.480 143.040,210.600 143.221 C 209.720 143.402,207.740 143.830,206.200 144.172 C 204.660 144.514,202.500 144.973,201.400 145.193 C 200.300 145.413,198.140 145.873,196.600 146.215 C 195.060 146.557,192.900 147.005,191.800 147.209 C 190.700 147.413,188.630 147.856,187.200 148.194 C 185.770 148.532,183.610 149.004,182.400 149.242 C 181.190 149.480,179.570 149.817,178.800 149.991 L 177.400 150.308 178.972 150.354 C 179.836 150.379,181.096 150.232,181.772 150.026 C 183.836 149.398,188.245 148.489,193.277 147.653 C 194.530 147.445,195.790 147.129,196.077 146.950 C 196.581 146.636,198.411 146.312,203.294 145.672 C 204.556 145.507,205.807 145.153,206.074 144.886 C 206.341 144.619,207.424 144.400,208.480 144.400 C 209.536 144.400,210.400 144.244,210.400 144.054 C 210.400 143.863,211.698 143.615,213.284 143.501 C 214.878 143.387,216.235 143.095,216.318 142.847 C 216.425 142.524,222.856 142.400,239.433 142.400 C 257.505 142.400,262.414 142.293,262.465 141.900 C 262.501 141.625,262.742 145.090,263.000 149.600 L 263.469 157.800 263.535 147.495 C 263.608 135.874,263.578 135.727,260.714 133.895 C 259.381 133.042,257.932 133.075,253.800 134.056 M174.600 150.830 C 173.940 151.021,172.230 151.437,170.800 151.754 C 169.110 152.128,168.620 152.342,169.400 152.366 C 170.825 152.409,176.037 151.230,176.580 150.742 C 177.049 150.320,176.232 150.356,174.600 150.830 M165.600 152.758 C 165.270 152.942,164.054 153.198,162.898 153.328 C 161.741 153.457,160.481 153.761,160.098 154.003 C 159.520 154.367,159.606 154.412,160.600 154.262 C 163.924 153.762,167.041 153.069,167.380 152.753 C 167.867 152.300,166.415 152.304,165.600 152.758 M157.970 155.468 L 157.000 156.536 158.087 155.768 C 158.686 155.346,159.181 154.865,159.187 154.700 C 159.208 154.207,158.989 154.346,157.970 155.468 M156.649 157.415 C 156.512 157.773,156.432 160.616,156.472 163.733 L 156.543 169.400 156.790 163.200 C 157.050 156.651,157.044 156.387,156.649 157.415 M278.989 196.400 C 278.989 211.690,279.039 217.945,279.100 210.300 C 279.161 202.655,279.161 190.145,279.100 182.500 C 279.039 174.855,278.989 181.110,278.989 196.400 " stroke="none" fill="#fc2c6c" fill-rule="evenodd"></path><path id="path3" d="M109.700 374.282 C 109.205 374.378,108.800 374.713,108.800 375.028 C 108.800 375.522,121.171 375.600,200.000 375.600 C 277.115 375.600,291.200 375.515,291.200 375.050 C 291.200 374.748,290.637 374.388,289.950 374.250 C 288.567 373.973,111.138 374.005,109.700 374.282 " stroke="none" fill="#d37779" fill-rule="evenodd"></path><path id="path4" d="M268.675 77.058 C 268.442 77.292,266.774 77.645,260.600 78.770 C 259.500 78.971,257.160 79.434,255.400 79.799 C 253.640 80.164,251.300 80.604,250.200 80.778 C 248.112 81.106,244.821 81.800,242.354 82.430 C 241.558 82.634,240.355 82.800,239.680 82.800 C 239.004 82.800,237.945 82.997,237.326 83.237 C 236.707 83.477,235.120 83.852,233.800 84.071 C 230.643 84.594,228.481 84.994,224.600 85.774 C 222.840 86.127,220.410 86.593,219.200 86.808 C 217.990 87.023,215.740 87.475,214.200 87.813 C 212.660 88.150,210.410 88.591,209.200 88.791 C 207.990 88.992,205.650 89.447,204.000 89.802 C 202.350 90.158,200.100 90.601,199.000 90.787 C 197.900 90.973,195.560 91.426,193.800 91.794 C 192.040 92.162,189.700 92.621,188.600 92.815 C 187.500 93.009,185.250 93.458,183.600 93.813 C 181.950 94.168,179.700 94.597,178.600 94.766 C 175.310 95.271,171.461 96.067,170.481 96.445 C 169.976 96.640,168.953 96.800,168.207 96.800 C 167.462 96.800,166.388 96.976,165.821 97.192 C 164.843 97.564,162.276 98.082,157.800 98.810 C 156.700 98.989,154.990 99.311,154.000 99.526 C 153.010 99.742,150.940 100.141,149.400 100.415 C 145.136 101.173,142.280 103.721,141.348 107.600 C 141.162 108.370,141.009 141.490,141.005 181.200 L 141.000 253.400 140.148 255.200 C 137.912 259.921,134.971 260.799,121.400 260.801 C 112.951 260.803,109.976 261.070,103.200 262.435 C 100.816 262.916,96.801 264.321,95.200 265.235 C 94.870 265.424,94.020 265.871,93.312 266.229 C 89.858 267.974,84.012 275.768,83.996 278.649 C 83.993 279.062,83.723 280.284,83.396 281.364 C 82.607 283.964,82.617 290.601,83.414 293.538 C 84.711 298.321,85.004 299.073,86.504 301.483 C 93.199 312.236,114.116 317.060,133.800 312.390 C 134.900 312.129,135.971 311.755,136.180 311.558 C 136.389 311.361,136.886 311.200,137.285 311.200 C 137.684 311.200,138.323 311.035,138.705 310.832 C 139.087 310.630,140.570 309.889,142.000 309.186 C 147.697 306.384,152.341 301.767,154.476 296.784 C 154.802 296.023,155.323 294.770,155.634 294.000 C 156.111 292.819,156.231 282.001,156.400 224.929 L 156.600 157.258 157.442 156.129 C 158.637 154.526,160.300 153.665,163.030 153.235 C 164.334 153.030,167.560 152.395,170.200 151.825 C 177.889 150.165,180.892 149.529,182.600 149.202 C 183.480 149.033,185.550 148.581,187.200 148.197 C 188.850 147.813,191.010 147.351,192.000 147.170 C 192.990 146.990,195.060 146.561,196.600 146.217 C 198.140 145.874,200.300 145.413,201.400 145.193 C 202.500 144.973,204.660 144.514,206.200 144.172 C 207.740 143.830,209.720 143.402,210.600 143.221 C 211.480 143.040,213.640 142.583,215.400 142.206 C 217.160 141.829,219.320 141.376,220.200 141.200 C 221.080 141.023,223.150 140.577,224.800 140.210 C 226.450 139.842,228.610 139.394,229.600 139.213 C 230.590 139.032,232.750 138.584,234.400 138.216 C 236.050 137.849,238.120 137.400,239.000 137.220 C 239.880 137.039,242.040 136.583,243.800 136.206 C 245.560 135.829,247.720 135.382,248.600 135.213 C 249.480 135.043,251.902 134.521,253.981 134.052 C 259.720 132.759,261.303 133.151,263.100 136.310 C 263.767 137.482,263.833 226.013,263.170 229.280 C 261.768 236.184,258.510 237.502,242.600 237.606 C 228.114 237.700,220.480 239.461,214.056 244.190 C 201.801 253.212,202.820 279.207,215.651 284.887 C 216.283 285.166,216.800 285.531,216.800 285.698 C 216.800 285.864,216.975 286.000,217.189 286.000 C 217.403 286.000,218.528 286.434,219.689 286.964 C 221.718 287.890,224.114 288.628,228.039 289.538 C 234.058 290.933,247.943 290.941,253.907 289.552 C 256.558 288.935,260.087 287.926,260.800 287.580 C 261.130 287.421,262.443 286.794,263.719 286.188 C 267.145 284.559,271.305 281.500,273.057 279.320 C 273.906 278.264,274.735 277.340,274.900 277.267 C 275.065 277.193,275.200 276.965,275.200 276.759 C 275.200 276.553,275.609 275.713,276.110 274.892 C 277.185 273.128,278.008 270.885,278.492 268.400 C 279.188 264.824,279.252 85.708,278.557 83.586 C 277.214 79.478,270.614 75.119,268.675 77.058 M273.600 78.621 C 274.662 79.160,276.248 80.758,277.339 82.389 C 278.331 83.874,278.360 267.132,277.368 270.229 C 275.939 274.689,270.047 282.800,268.235 282.800 C 268.030 282.800,267.572 283.064,267.216 283.386 C 263.387 286.851,253.475 289.554,243.379 289.888 C 237.343 290.087,235.622 289.962,228.200 288.789 C 223.695 288.076,217.299 285.689,215.671 284.112 C 215.381 283.830,215.021 283.598,214.871 283.595 C 214.430 283.587,211.483 280.698,210.380 279.192 C 205.317 272.285,204.559 260.217,208.653 251.724 C 209.933 249.069,213.839 244.400,214.780 244.400 C 214.980 244.400,215.381 244.170,215.671 243.888 C 216.497 243.088,220.374 241.295,222.800 240.591 C 228.994 238.793,232.147 238.427,243.600 238.181 C 259.544 237.838,261.671 237.013,263.659 230.400 C 264.427 227.846,264.467 136.356,263.700 136.100 C 263.425 136.008,263.200 135.700,263.200 135.414 C 263.200 133.223,257.893 132.115,253.435 133.376 C 252.316 133.692,250.320 134.155,249.000 134.404 C 247.680 134.653,245.899 135.039,245.043 135.261 C 243.603 135.636,242.444 135.872,237.600 136.778 C 236.610 136.963,234.540 137.409,233.000 137.769 C 231.460 138.129,229.300 138.590,228.200 138.793 C 227.100 138.996,224.940 139.456,223.400 139.815 C 221.860 140.174,219.665 140.615,218.523 140.796 C 217.380 140.977,216.283 141.225,216.086 141.347 C 215.888 141.469,214.663 141.764,213.363 142.001 C 210.837 142.464,209.524 142.738,204.800 143.790 C 203.150 144.158,200.990 144.606,200.000 144.786 C 199.010 144.967,196.940 145.411,195.400 145.774 C 193.860 146.138,191.700 146.589,190.600 146.777 C 189.500 146.965,187.340 147.423,185.800 147.795 C 184.260 148.167,182.190 148.609,181.200 148.777 C 180.210 148.946,178.590 149.275,177.600 149.509 C 176.610 149.743,174.720 150.145,173.400 150.403 C 170.026 151.061,166.020 151.978,164.572 152.423 C 163.896 152.630,162.764 152.800,162.056 152.800 C 160.358 152.800,157.788 154.141,156.906 155.487 C 156.241 156.502,156.187 160.443,155.978 223.782 C 155.742 295.180,155.841 291.502,154.045 296.109 C 152.380 300.381,144.019 308.800,141.441 308.800 C 141.320 308.800,140.272 309.222,139.111 309.739 C 135.782 311.219,131.770 312.311,128.400 312.654 C 127.410 312.755,125.070 312.990,123.200 313.177 C 115.530 313.944,103.501 312.323,97.689 309.739 C 96.528 309.222,95.465 308.800,95.327 308.800 C 95.189 308.800,94.486 308.350,93.764 307.800 C 93.043 307.250,92.308 306.800,92.130 306.800 C 91.444 306.800,87.261 301.946,86.375 300.121 C 81.683 290.456,82.959 277.504,89.288 270.580 C 91.194 268.494,95.861 265.200,96.910 265.200 C 97.202 265.200,97.611 265.057,97.820 264.882 C 98.194 264.569,101.064 263.657,104.200 262.854 C 106.591 262.242,114.344 261.665,124.000 261.380 C 135.430 261.043,138.297 260.203,140.128 256.655 C 141.980 253.067,141.984 252.906,141.992 178.087 C 141.999 115.359,142.068 107.411,142.619 106.093 C 143.783 103.306,145.959 101.678,149.200 101.168 C 150.190 101.012,152.530 100.576,154.400 100.200 C 156.270 99.824,158.610 99.374,159.600 99.200 C 160.590 99.026,162.930 98.576,164.800 98.200 C 166.670 97.824,169.010 97.370,170.000 97.193 C 170.990 97.015,173.240 96.571,175.000 96.206 C 176.760 95.841,179.010 95.391,180.000 95.206 C 183.083 94.628,188.518 93.580,190.400 93.200 C 195.626 92.145,198.803 91.523,200.600 91.204 C 201.700 91.008,204.040 90.546,205.800 90.175 C 207.560 89.805,209.810 89.363,210.800 89.193 C 211.790 89.023,214.130 88.578,216.000 88.205 C 217.870 87.831,220.210 87.368,221.200 87.175 C 222.190 86.982,224.440 86.536,226.200 86.184 C 227.960 85.831,230.210 85.395,231.200 85.214 C 232.190 85.032,234.530 84.576,236.400 84.200 C 238.270 83.824,240.610 83.371,241.600 83.193 C 243.224 82.902,247.515 82.058,251.800 81.188 C 252.680 81.009,254.930 80.569,256.800 80.210 C 258.670 79.852,261.100 79.385,262.200 79.173 C 270.293 77.611,271.494 77.553,273.600 78.621 " stroke="none" fill="#fc80a0" fill-rule="evenodd"></path></g></svg>